<?xml version="1.0" encoding="UTF-8"?>
<!DOCTYPE svg PUBLIC "-//W3C//DTD SVG 1.1//EN"
"http://www.w3.org/Graphics/SVG/1.1/DTD/svg11-flat-20030114.dtd">
<svg xmlns="http://www.w3.org/2000/svg" width="400" height="400">
  <rect width="400" height="400" fill="#eaeaea" stroke-width="0"/>
  <path fill="#bba594" stroke-width="0" d="m28,400 l2,-8 l1,-8 l2,-8 l1,-8 l1,-8 l2,-8 l1,-8 l2,-8 l3,-3 l3,-3 l3,-3 l3,-3 l-1,-4 l-1,-4 l6,-2 l10,-12 l-6,-17 l5,-4 l4,-17 l7,-4 l-1,-9 l4,-4 l-4,-24 l13,-48 l14,-41 l-9,-64 l-1,-23 l7,-19 l13,1 l21,16 l15,19 l30,4 l32,-2 l21,-3 l21,-1 l18,-16 l19,-24 l11,4 l2,27 l-4,40 l20,41 l8,43 l-6,50 l1,11 l-1,6 l4,31 l3,7 l-4,15 l-19,17 l0,6 l5,3 l4,7 l8,6 l-4,13 l4,21 l-3,7 l5,11 l8,1 L335,400Z"/>
   <path fill="#806249" stroke-width="0" d="m87,193 l0,14 l-3,4 l6,11 l-7,25 l13,7 l1,17 l10,16 l39,29 l58,14 l30,-1 l0,-39 l-19,-29 l-26,-21 l-30,-38 l1,-6 l-13,-47 l5,-21 l9,-19 l19,-20 l31,-20 l15,1 l16,-2 l13,5 l5,-2 l-10,-6 l-17,-3 l-24,4 l-24,11 l-12,-2 l-34,-16 l-14,-17 l-24,-15 l-7,10 l-3,11 l6,-6 l4,1 l4,12 l-4,12 l14,32 l-9,4 l3,7 l-8,7 l3,25 l-3,5 l3,12 l-4,15 l6,27 l7,-5 l-6,-14 l5,-18 l20,-33 l8,-23 l12,-18 l21,-8 l-15,21 l-14,34 l-3,33 l10,31 l29,37 l27,25 l3,6 l-5,5 l-18,-2 l-23,-18 l-9,0 l-29,-21 l-14,-27 l-15,-2 l-4,-16 c-3,2 -6,3 -9,4z"/>
   <path  fill="#806249" stroke-width="0" d="m172,140 l4,-11 l15,-8 l17,-5 l8,-10 l18,26 l-8,5 l-18,2 l-13,-9 l-11,8 l-12,1z"/>
   <path  fill="#806249" stroke-width="0" d="m238,80 l3,11 l7,-2 l-8,-11 l-2,3z"/>
   <path  fill="#806249" stroke-width="0" d="m262,63 l9,-15 l12,-12 l3,-5 l11,0 l-7,27 l5,-4 l-5,28 l-11,-10 l-16,-8z"/>
   <path  fill="#726153" stroke-width="0" d="m133,310 l22,30 l30,3 l27,5 l-8,13 l20,-10 l-3,7 l9,1 l12,-6 l10,35 l19,10 l-4,-14 l-15,-6 l-7,-26 l5,-2 l7,3 l0,-7 l13,0 l4,-7 l12,-3 l3,-11 l10,-1 l3,11 l5,-9 l-10,-10 l6,-21 l16,-10 l-2,-37 l-7,-13 l-3,11 l-32,23 l-11,16 l-15,2 l-4,-9 l5,-11 l21,-14 l16,-25 l27,-26 l-2,-8  l5,-15 l-1,-32 l-6,-5 l1,15 l-17,-4 l-15,10 l-2,29 l-14,20 l-23,3 l-13,-3 l12,9 l11,-3 l5,4 l12,1 l0,7 l-36,0 l-6,-6 l-8,4 l12,11 l10,2 l-1,10 l-3,11 l-8,2 l-10,-15 l-28,-12 l25,26 l24,24 l2,46 l-10,4 l-9,-2z"/>
   <path  fill="#726153" stroke-width="0" d="m283,108 l-3,10 l6,15 l20,-8 l-23,-17z"/>
   <path  fill="#f1ccac" stroke-width="0" d="m267,78 l-4,16 l15,21 l1,-23 l-12,-14z"/>
   <path  fill="#f1ccac" stroke-width="0" d="m272,400 l19,-10 l11,-17 l4,9 l-1,18z"/>
   <path  fill="#f1ccac" stroke-width="0" d="m300,129 l-8,13 l2,9 l6,-2 l2,-6 l-2,-14z"/>
   <path  fill="#f1ccac" stroke-width="0" d="m316,210 l-12,12 l-4,12 l-8,5 l10,2 l6,-10 l0,-10 l7,-11z"/>
   <path  fill="#f1ccac" stroke-width="0" d="m147,118 l-17,25 l10,-3 l7,-18 l0,-4z"/>
   <path  fill="#f1ccac" stroke-width="0" d="m120,176 l7,-8 l13,12 l-3,13 l-10,-4 l-7,-11z"/>
   <path  fill="#f1ccac" stroke-width="0" d="m131,201 l6,-2 l4,1 l-3,4 l-7,-3z"/>
   <path  fill="#f1ccac" stroke-width="0" d="m132,219 l8,11 l14,6 l1,7 l37,23 l11,-5 l-30,-21 l-15,-23 l-17,-10 l-2,2 l4,6 l-11,4z"/>
   <path  fill="#f1ccac" stroke-width="0" d="m175,377 l1,14 l8,-12 l5,-13 l-2,-3 l-11,14z"/>
   <path  fill="#f1ccac" stroke-width="0" d="m57,400 l9,-11 l2,-28 l12,-7 l8,5 l-5,12 l7,12 l18,5 l8,9 l17,4z"/>
   <path  fill="#f1ccac" stroke-width="0" d="m81,344.34178 l-6.83019,-38.14913l23.6558,-15.99265 l2.83203,3.3318 l-9.16246,6.8302 l11.99449,4.66452 l14.16016,10.82836 l12.49426,7.32997 l21.82331,32.65166 l6.8302,2.83203 l4.83111,-2.49885 l2.83203,3.49839 l-9.16246,15.49288 l-4.49793,-3.66498 l2.16567,-9.66223 l-15.49288,3.83157 l-2.83203,-8.32951 l-6.16383,4.66452 l-0.16659,-11.66131 l7.66315,-4.16475 l-8.32951,-7.32997 l-13.4938,3.99816 l8.66268,6.16383 l-11.8279,5.49748 l-4.9977,-5.66406 l-10.49518,3.83157 l4.33134,-9.82882 l-2.49885,-3.99816 l-3.66498,7.49656 l-14.65993,-1.99909z"/>
   <path  fill="#e8dbcd" stroke-width="0" d="m149.66757,159.33046l9.99622,21.33295l0,10.9998l14.33308,11.66646l13.33309,-1.99996l10.9998,3.6666l-7.99986,7.99986l-4.99991,10.66647l5.33324,7.99986c0.0036,0.33333 6.67015,3.33327 6.67015,3.33327c0,0 6.33322,-17.66635 6.32962,-17.99967c0.0036,0.33333 8.67011,-7.66653 8.66651,-7.99986c0.0036,0.33333 15.00333,-3.6666 14.99973,-3.99993c0.0036,0.33333 13.67002,5.33324 13.66642,4.99991c0.0036,0.33333 6.33682,-3.33327 6.33322,-3.6666c0.0036,0.33333 2.67022,-4.66658 2.66662,-4.99991c0.0036,0.33333 7.67013,-2.33329 7.66653,-2.66662c0.0036,0.33333 0.33693,-4.33326 0.33333,-4.66658c0.0036,0.33333 12.00338,-2.99995 11.99978,-3.33327c0.0036,0.33333 3.33687,-29.99946 3.33327,-30.33279c0.0036,0.33333 7.3368,-11.33313 7.3332,-11.66646c0.0036,0.33333 -13.32949,3.33327 -13.33309,2.99995c0.0036,0.33333 -12.32951,-8.33318 -12.33311,-8.66651c0.0036,0.33333 -5.99629,8.99984 -5.99989,8.66651c0.0036,0.33333 -14.99613,4.99991 -14.99973,4.66658c0.0036,0.33333 -8.66291,-6.99987 -8.66651,-7.3332c0.0036,0.33333 -24.3293,10.66647 -24.3329,10.33315c0.0036,0.33333 -15.99611,-8.33318 -15.99971,-8.66651c0.0036,0.33333 -14.32948,-1.99996 -14.33308,-2.33329c0.0036,0.33333 -9.99622,8.99984 -9.99982,8.66651c0.0036,0.33333 -8.66291,-0.99998 -8.66651,-1.33331c0.0036,0.33333 -2.32969,3.6666 -2.32969,3.6666z"/>
   <path  fill="#e8dbcd" stroke-width="0" d="m224.66622,98.66489c0.33333,0 0.33333,11.33313 0.32973,10.9998c0.0036,0.33333 10.33675,3.6666 10.33315,3.33327c0.0036,0.33333 -3.32967,-13.99975 -3.33327,-14.33308c0.0036,0.33333 -7.66293,0 -7.3296,0z"/>
   <path  fill="#e8dbcd" stroke-width="0" d="m249.33245,117.99788l-8.33678,11.33313l0,8.33318l11.66646,-9.33317l-3.32967,-10.33315z"/>
   <path  fill="#3f2111" stroke-width="0" d="m107.00167,62.99887l0.32973,13.33309c0.0036,0.33333 16.33664,25.99953 16.33664,26.33286c0,0.33333 12.33311,-3.33327 12.32951,-3.6666c0.0036,0.33333 -14.6628,-31.33277 -14.6664,-31.6661l-14.32947,-4.33326l-0.00001,0.00001z"/>
   <path  fill="#3f2111" stroke-width="0" d="m121.33376,45.66643l8.66555,23.33321l10.66661,9.33328l3.99998,15.66658l12.6666,-13.33326l-3.33332,-12.99993l-10.33328,0.99999l-22.33214,-22.99988z"/>
   <path  fill="#3f2111" stroke-width="0" d="m152.3336,116.33272l3.9989,-0.33334l21.99988,-27.99985l-0.99999,-5.66664l-16.99991,18.9999l-7.99888,14.99993z"/>
   <path  fill="#3f2111" stroke-width="0" d="m213.33327,67l17.33216,2.66665l18.9999,-0.99999l-15.99991,-5.3333l-20.33215,3.66665z"/>
   <path  fill="#3f2111" stroke-width="0" d="m300.66614,272.33189l-3.3344,8.33328l11.33327,-3.66665l-0.99999,-7.99996l-6.99888,3.33333z"/>
   <path  fill="#3f2111" stroke-width="0" d="m291.99952,281.33185l-4.00106,4.66663l10.99994,2.66665l-6.99888,-7.33328z"/>
   <path  fill="#3f2111" stroke-width="0" d="m290.6662,309.99836l-1.66774,4.66663l10.33328,8.66662l0.99999,-2.66665l-9.66553,-10.6666z"/>
   <path  fill="#3f2111" stroke-width="0" d="m309.99943,390.33127l-2.00107,7.66661l13.66659,-1.99999l-11.66552,-5.66662z"/>
   <path  fill="#3f2111" stroke-width="0" d="m266.11692,399.37287l-5.65636,-6.34456l-12.6891,-39.73693l0.33392,-7.68025l23.37467,-9.34987l5.00886,-10.35164l-14.35872,-0.66785l-10.68556,6.67848l-9.68379,-2.67139l0.33392,-10.35164l13.02303,-4.34101l-13.35695,-1.3357l-2.33747,-32.72453l10.35164,-17.69796l28.71745,-26.04606l-25.71213,-5.34278l-11.68733,1.00177l3.33924,7.34632l12.02126,-2.67139c0.31357,0.00001 1.31535,5.00886 1.31535,5.00886c0,0 -15.69442,13.69088 -16.00799,13.69087c0.31357,0.00001 -6.03098,12.02126 -6.03098,12.02126c0,0 -5.6767,2.67139 -5.99028,2.67138c0.31357,0.00001 -49.775,-45.41363 -50.08857,-45.41364c0.31357,0.00001 -11.70768,-14.69264 -12.02126,-14.69265c0.31357,0.00001 -21.7254,-52.75996 -22.03897,-52.75996c0.31357,0 -1.35605,17.03012 -1.66962,17.03011c0.31357,0 8.32774,27.38176 8.01417,27.38175c0.31357,0.00001 19.68115,28.71745 19.36758,28.71745c0.31357,0.00001 26.69355,28.04961 26.37998,28.0496c0.31357,0.00001 16.34192,9.6838 16.02834,9.68379c0.31357,0.00001 6.99205,13.35696 6.67848,13.35695c0.31357,0.00001 7.99382,29.05138 7.68025,29.05137c0.31357,0.00001 1.31535,14.69266 1.00177,14.69265c0.31357,0.00001 -3.02566,1.00178 -3.33924,1.00177c0.31357,0.00001 -1.02212,-16.36226 -1.3357,-16.36227c0.31357,0.00001 -9.70414,10.01772 -10.01771,10.01771c0.31357,0.00001 -18.05224,2.6714 -18.36581,2.67139c0.31357,0.00001 -27.73603,-3.33923 -28.0496,-3.33924c0.31357,0.00001 -16.04869,-12.6891 -16.36227,-12.6891c0.31357,0.00001 -13.04338,-4.00708 -13.35695,-4.00709c0.31357,0.00001 -13.3773,-17.69795 -13.69088,-17.69796c0.31357,0.00001 -18.38616,-12.6891 -18.69973,-12.6891c0.31357,0.00001 -4.69529,0.00001 -5.00886,0c0.31357,0.00001 2.65104,15.3605 2.33747,15.36049c0.31357,0.00001 13.00268,13.02304 12.6891,13.02303c0.31357,0.00001 4.32066,12.68911 4.00709,12.6891c0.31357,0.00001 24.02216,13.35696 23.70859,13.35695c0.31357,0.00001 68.43403,20.36936 68.76795,20.36936c0.33392,0 17.69796,-6.01063 17.38439,-6.01064c0.31357,0.00001 5.65635,6.34456 5.34278,6.34455c0.31357,0.00001 9.32952,41.07264 9.01594,41.07263c0.31357,0.00001 9.66344,10.68557 9.34987,10.68556"/>
   <path  fill="#21100b" stroke-width="0" d="m194.65722,131.56598l4.36136,-10.01772l9.34987,-2.33746l17.03011,3.67316l0,13.69087l-14.69264,2.33747l-16.0487,-7.34632z"/>
   <path  fill="#21100b" stroke-width="0" d="m283.81488,114.53587l-1.98319,7.34632l4.67493,12.35518l5.6767,-1.3357l6.34455,-13.02303l-14.713,-5.34278l0.00001,0.00001z"/>
   <path  fill="#21100b" stroke-width="0" d="m278.80602,159.28166l-3.65281,14.0248l6.34455,10.01771l-5.34278,15.36049l-17.36404,13.02303l-3.00531,6.34455l15.36049,-2.00354l7.68025,6.67848l17.03011,-8.68202l8.34809,-8.34809c0.31358,0.00001 2.31712,-16.69619 2.31712,-16.69619c0,0 4.67493,-10.35164 4.36136,-10.35164c0.31358,0 0.98142,-19.03365 0.98142,-19.03365c0,0 -10.35164,-4.34101 -10.66521,-4.34101c0.31358,0 -12.04161,-1.00177 -12.35518,-1.00177l-10.03806,5.00886l0,-0.00001z"/>
</svg>
