<?xml version="1.0" encoding="UTF-8"?>
<!DOCTYPE svg PUBLIC "-//W3C//DTD SVG 1.1//EN"
"http://www.w3.org/Graphics/SVG/1.1/DTD/svg11-flat-20030114.dtd">
<svg xmlns="http://www.w3.org/2000/svg" width="248" height="248">

 <rect x="54" y="25" width="40" height="20" 
	   style="fill:rgb(178,34,34);stroke-width:0;stroke:rgb(0,0,0)">    
  </rect>
	 <rect x="154" y="25" width="40" height="20" 
	   style="fill:rgb(178,34,34);stroke-width:0;stroke:rgb(0,0,0)">    
  </rect>
	
	<rect x="34" y="45" width="20" height="20" 
	   style="fill:rgb(178,34,34);stroke-width:0;stroke:rgb(0,0,0)">    
  </rect>
	<rect x="94" y="45" width="20" height="20" 
	   style="fill:rgb(178,34,34);stroke-width:0;stroke:rgb(0,0,0)">    
  </rect>
	<rect x="134" y="45" width="20" height="20" 
	   style="fill:rgb(178,34,34);stroke-width:0;stroke:rgb(0,0,0)">    
  </rect>
	<rect x="194" y="45" width="20" height="20" 
	   style="fill:rgb(178,34,34);stroke-width:0;stroke:rgb(0,0,0)">    
  </rect>
	<rect x="154" y="45" width="40" height="20" 
	   style="fill:rgb(238,44,44);stroke-width:0;stroke:rgb(0,0,0)">    
  </rect>
	<rect x="54" y="45" width="40" height="20" 
	   style="fill:rgb(238,44,44);stroke-width:0;stroke:rgb(0,0,0)">    
  </rect>		
	<rect x="14" y="65" width="20" height="60" 
	   style="fill:rgb(178,34,34);stroke-width:0;stroke:rgb(0,0,0)">    
  </rect>
	<rect x="214" y="65" width="20" height="60" 
	   style="fill:rgb(178,34,34);stroke-width:0;stroke:rgb(0,0,0)">    
  </rect>
	<rect x="34" y="65" width="20" height="60" 
	   style="fill:rgb(238,44,44);stroke-width:0;stroke:rgb(0,0,0)">    
  </rect>
	<rect x="194" y="65" width="20" height="60" 
	   style="fill:rgb(238,44,44);stroke-width:0;stroke:rgb(0,0,0)">    
  </rect>
	
	<rect x="54" y="65" width="20" height="20" 
	   style="fill:rgb(238,44,44);stroke-width:0;stroke:rgb(0,0,0)">    
  </rect>
	<rect x="174" y="65" width="20" height="20" 
	   style="fill:rgb(238,44,44);stroke-width:0;stroke:rgb(0,0,0)">    
  </rect>
	
	<rect x="94" y="65" width="20" height="20" 
	   style="fill:rgb(238,44,44);stroke-width:0;stroke:rgb(0,0,0)">    
  </rect>
	<rect x="134" y="65" width="20" height="20" 
	   style="fill:rgb(238,44,44);stroke-width:0;stroke:rgb(0,0,0)">    
  </rect>
	<rect x="114" y="65" width="20" height="20" 
	   style="fill:rgb(178,34,34);stroke-width:0;stroke:rgb(0,0,0)">    
  </rect>
	
	<rect x="34" y="125" width="20" height="20" 
	   style="fill:rgb(178,34,34);stroke-width:0;stroke:rgb(0,0,0)">    
  </rect>	
	<rect x="194" y="125" width="20" height="20" 
	   style="fill:rgb(178,34,34);stroke-width:0;stroke:rgb(0,0,0)">    
  </rect>	

	<rect x="54" y="145" width="20" height="20" 
	   style="fill:rgb(178,34,34);stroke-width:0;stroke:rgb(0,0,0)">    
  </rect>	
	<rect x="174" y="145" width="20" height="20" 
	   style="fill:rgb(178,34,34);stroke-width:0;stroke:rgb(0,0,0)">    
  </rect>
	
	<rect x="74" y="165" width="20" height="20" 
	   style="fill:rgb(178,34,34);stroke-width:0;stroke:rgb(0,0,0)">    
  </rect>	
	<rect x="154" y="165" width="20" height="20" 
	   style="fill:rgb(178,34,34);stroke-width:0;stroke:rgb(0,0,0)">    
  </rect>
	
	<rect x="94" y="185" width="20" height="20" 
	   style="fill:rgb(178,34,34);stroke-width:0;stroke:rgb(0,0,0)">    
  </rect>	
	<rect x="134" y="185" width="20" height="20" 
	   style="fill:rgb(178,34,34);stroke-width:0;stroke:rgb(0,0,0)">    
  </rect>
  
  <rect x="114" y="205" width="20" height="20" 
	   style="fill:rgb(178,34,34);stroke-width:0;stroke:rgb(0,0,0)">    
  </rect>
  
  <rect x="114" y="185" width="20" height="20" 
	   style="fill:rgb(238,44,44);stroke-width:0;stroke:rgb(0,0,0)">    
  </rect>
  
  <rect x="94" y="165" width="20" height="20" 
	   style="fill:rgb(238,44,44);stroke-width:0;stroke:rgb(0,0,0)">    
  </rect>	
	<rect x="134" y="165" width="20" height="20" 
	   style="fill:rgb(238,44,44);stroke-width:0;stroke:rgb(0,0,0)">    
  </rect>
  
  <rect x="74" y="145" width="20" height="20" 
	   style="fill:rgb(238,44,44);stroke-width:0;stroke:rgb(0,0,0)">    
  </rect>	
	<rect x="154" y="145" width="20" height="20" 
	   style="fill:rgb(238,44,44);stroke-width:0;stroke:rgb(0,0,0)">    
  </rect>
  
  <rect x="54" y="125" width="20" height="20" 
	   style="fill:rgb(238,44,44);stroke-width:0;stroke:rgb(0,0,0)">    
  </rect>	
	<rect x="174" y="125" width="20" height="20" 
	   style="fill:rgb(238,44,44);stroke-width:0;stroke:rgb(0,0,0)">    
  </rect>
  
  <rect x="54" y="85" width="40" height="40" 
	   style="fill:rgb(255,69,0);stroke-width:0;stroke:rgb(0,0,0)">    
  </rect>	
	<rect x="154" y="85" width="40" height="40" 
	   style="fill:rgb(255,69,0);stroke-width:0;stroke:rgb(0,0,0)">    
  </rect>
  
  <rect x="94" y="105" width="60" height="40" 
	   style="fill:rgb(255,64,64);stroke-width:0;stroke:rgb(0,0,0)">    
  </rect>
  
  
  <rect x="94" y="85" width="20" height="20" 
	   style="fill:rgb(255,64,64);stroke-width:0;stroke:rgb(0,0,0)">    
  </rect>
  <rect x="134" y="85" width="20" height="20" 
	   style="fill:rgb(255,64,64);stroke-width:0;stroke:rgb(0,0,0)">    
  </rect>
  
  <rect x="114" y="145" width="20" height="20" 
	   style="fill:rgb(255,64,64);stroke-width:0;stroke:rgb(0,0,0)">    
  </rect>
  
  <rect x="114" y="165" width="20" height="20" 
	   style="fill:rgb(255,69,0);stroke-width:0;stroke:rgb(0,0,0)">    
  </rect>
  
  <rect x="94" y="145" width="20" height="20" 
	   style="fill:rgb(255,69,0);stroke-width:0;stroke:rgb(0,0,0)">    
  </rect>
  <rect x="134" y="145" width="20" height="20" 
	   style="fill:rgb(255,69,0);stroke-width:0;stroke:rgb(0,0,0)">    
  </rect>
  
  <rect x="74" y="125" width="20" height="20" 
	   style="fill:rgb(255,69,0);stroke-width:0;stroke:rgb(0,0,0)">    
  </rect>
  <rect x="154" y="125" width="20" height="20" 
	   style="fill:rgb(255,69,0);stroke-width:0;stroke:rgb(0,0,0)">    
  </rect>
  
  <rect x="74" y="65" width="20" height="20" 
	   style="fill:rgb(255,69,0);stroke-width:0;stroke:rgb(0,0,0)">    
  </rect>
  <rect x="154" y="65" width="20" height="20" 
	   style="fill:rgb(255,69,0);stroke-width:0;stroke:rgb(0,0,0)">    
  </rect>
  
  <rect x="114" y="85" width="20" height="20" 
	   style="fill:rgb(255,69,0);stroke-width:0;stroke:rgb(0,0,0)">    
  </rect>

   
</svg>
